<?xml version="1.0" encoding="utf-8"?>
<!-- Generator: Adobe Illustrator 19.2.1, SVG Export Plug-In . SVG Version: 6.00 Build 0)  -->
<svg version="1.1" id="Layer_1" xmlns="http://www.w3.org/2000/svg" xmlns:xlink="http://www.w3.org/1999/xlink" x="0px" y="0px"
	 viewBox="0 0 35 35" style="enable-background:new 0 0 35 35;" xml:space="preserve">
<style type="text/css">
	.st0{fill:#FFFFFF;}
	.st1{fill:#FCE605;}
</style>
<g>
	<g>
		<path class="st0" d="M28.6,17.5c-1.2-2.4-3.8-4-6.7-4c-3.6,0-6.7,2.6-7.3,6c-2.6,0.2-4.7,2.3-4.7,5c0,2.8,2.2,5,5,5h13
			c3.3,0,6-2.7,6-6C33.9,20.5,31.6,17.8,28.6,17.5z"/>
	</g>
	<g>
		<g>
			<rect x="17.7" y="8.5" transform="matrix(0.7071 -0.7071 0.7071 0.7071 -1.2025 16.1965)" class="st1" width="2.5" height="2"/>
		</g>
		<g>
			<rect x="4.3" y="8.2" transform="matrix(0.7051 -0.7091 0.7091 0.7051 -5.1745 6.519)" class="st1" width="2" height="2.5"/>
		</g>
		<g>
			<rect x="11.1" y="5.4" class="st1" width="2" height="3"/>
		</g>
		<g>
			<rect x="1.1" y="15.4" class="st1" width="3" height="2"/>
		</g>
		<g>
			<path class="st1" d="M13,17.8c0.7-2.1,2.2-3.8,4-4.9c-1.1-1.5-2.9-2.5-4.9-2.5c-3.3,0-6,2.7-6,6c0,2.1,1,3.9,2.6,5
				C9.6,19.6,11.1,18.3,13,17.8z"/>
		</g>
		<g>
			<polygon class="st1" points="3.6,23.5 5.1,24.8 6.9,23 5.4,21.7 			"/>
		</g>
	</g>
</g>
</svg>
