<?xml version="1.0" encoding="UTF-8" standalone="no"?>
<svg
   xmlns:dc="http://purl.org/dc/elements/1.1/"
   xmlns:cc="http://creativecommons.org/ns#"
   xmlns:rdf="http://www.w3.org/1999/02/22-rdf-syntax-ns#"
   xmlns:svg="http://www.w3.org/2000/svg"
   xmlns="http://www.w3.org/2000/svg"
   viewBox="0 0 590.14667 238.26666"
   height="238.26666"
   width="590.14667"
   xml:space="preserve"
   id="svg2"
   version="1.1"><metadata
     id="metadata8"><rdf:RDF><cc:Work
         rdf:about=""><dc:format>image/svg+xml</dc:format><dc:type
           rdf:resource="http://purl.org/dc/dcmitype/StillImage" /></cc:Work></rdf:RDF></metadata><defs
     id="defs6" /><g
     transform="matrix(1.3333333,0,0,-1.3333333,0,238.26667)"
     id="g10"><g
       transform="scale(0.1)"
       id="g12"><path
         id="path14"
         style="fill:#ffffff;fill-opacity:1;fill-rule:nonzero;stroke:none"
         d="m 4426.09,1659.86 h -736.76 l 45.42,127.04 h 691.34 v -127.04" /><path
         id="path16"
         style="fill:#ffffff;fill-opacity:1;fill-rule:nonzero;stroke:none"
         d="m 2462.05,1786.93 684.03,0.06 44.83,-127.33 c 0.32,0.18 -728.64,-0.16 -728.64,0 0,0.18 -0.43,127.27 -0.22,127.27" /><path
         id="path18"
         style="fill:#ffffff;fill-opacity:1;fill-rule:nonzero;stroke:none"
         d="m 1918.78,1786.93 c 112.75,-10.86 210.76,-51.03 294.25,-127.25 0,0 -1239.921,-0.12 -1239.921,0 0,0.16 0,127.29 0,127.29 l 945.671,-0.04" /><path
         id="path20"
         style="fill:#ffffff;fill-opacity:1;fill-rule:nonzero;stroke:none"
         d="M 0.113281,1786.93 H 861.473 V 1659.91 H 0.113281 v 127.02" /><path
         id="path22"
         style="fill:#ffffff;fill-opacity:1;fill-rule:nonzero;stroke:none"
         d="m 4426.09,1421.54 h -821.2 c 0,0 44.79,126.34 44.55,126.39 h 776.65 v -126.39" /><path
         id="path24"
         style="fill:#ffffff;fill-opacity:1;fill-rule:nonzero;stroke:none"
         d="M 3275.52,1421.38 H 2462 v 126.59 h 768.98 l 44.54,-126.59" /><path
         id="path26"
         style="fill:#ffffff;fill-opacity:1;fill-rule:nonzero;stroke:none"
         d="m 2309.58,1547.99 c 16.35,-41.75 35.69,-77.41 35.69,-126.41 H 973.34 v 126.41 h 1336.24" /><path
         id="path28"
         style="fill:#ffffff;fill-opacity:1;fill-rule:nonzero;stroke:none"
         d="M 0.113281,1547.99 H 861.473 V 1421.58 H 0.113281 v 126.41" /><path
         id="path30"
         style="fill:#ffffff;fill-opacity:1;fill-rule:nonzero;stroke:none"
         d="m 3520.93,1182.61 45.09,126.99 616.56,-0.19 v -126.52 l -661.65,-0.28" /><path
         id="path32"
         style="fill:#ffffff;fill-opacity:1;fill-rule:nonzero;stroke:none"
         d="M 3315.09,1309.65 3360,1182.61 h -655.43 v 127.04 h 610.52" /><path
         id="path34"
         style="fill:#ffffff;fill-opacity:1;fill-rule:nonzero;stroke:none"
         d="m 2356.13,1309.67 c 0,-43.58 -5.47,-88.95 -18.14,-127.06 h -375.63 v 127.06 h 393.77" /><path
         id="path36"
         style="fill:#ffffff;fill-opacity:1;fill-rule:nonzero;stroke:none"
         d="M 240.191,1309.05 H 610.418 V 1182.63 H 240.191 v 126.42" /><path
         id="path38"
         style="fill:#ffffff;fill-opacity:1;fill-rule:nonzero;stroke:none"
         d="m 1222.57,1309.67 h 369.59 v -127.04 h -369.59 v 127.04" /><path
         id="path40"
         style="fill:#ffffff;fill-opacity:1;fill-rule:nonzero;stroke:none"
         d="m 3068.62,1045.45 c 0,0 0.14,-96.141 0.05,-96.348 h -364.1 v 126.438 h 693.84 l 43.06,-117.86 c 0.19,-0.071 41.56,118.14 41.64,117.86 h 699.24 V 949.102 h -362.29 c 0,0.207 -0.24,96.328 -0.24,96.328 l -33.47,-96.328 -684.25,0.207 -33.48,96.141" /><path
         id="path42"
         style="fill:#ffffff;fill-opacity:1;fill-rule:nonzero;stroke:none"
         d="m 1222.57,1075.54 h 1060.95 v 0.09 c -23.17,-42.35 -65.29,-93.86 -105.22,-126.528 0,0 -955.78,-0.161 -955.78,0 0,0.207 0.05,126.258 0.05,126.438" /><path
         id="path44"
         style="fill:#ffffff;fill-opacity:1;fill-rule:nonzero;stroke:none"
         d="M 240.191,1075.58 H 610.418 V 949.145 H 240.191 v 126.435" /><path
         id="path46"
         style="fill:#ffffff;fill-opacity:1;fill-rule:nonzero;stroke:none"
         d="m 3820.06,837.188 h 362.29 V 710.801 h -362.29 v 126.387" /><path
         id="path48"
         style="fill:#ffffff;fill-opacity:1;fill-rule:nonzero;stroke:none"
         d="M 3068.62,837.188 H 2704.57 V 710.801 c -0.19,0.039 364.19,-0.102 364.19,0 0,0.039 0.37,126.387 -0.14,126.387" /><path
         id="path50"
         style="fill:#ffffff;fill-opacity:1;fill-rule:nonzero;stroke:none"
         d="m 3746.87,837.188 c -1.66,0.23 -42.42,-126.348 -44.13,-126.387 l -516.07,-0.231 c -0.42,0.18 -45.37,126.848 -45.42,126.618 h 605.62" /><path
         id="path52"
         style="fill:#ffffff;fill-opacity:1;fill-rule:nonzero;stroke:none"
         d="m 1222.48,837.238 h 953.97 c 43.56,-36.34 82.93,-81.066 113.74,-126.437 1.75,0.039 -1067.67,-0.102 -1067.67,0 0,0.039 -0.04,126.34 -0.04,126.437" /><path
         id="path54"
         style="fill:#ffffff;fill-opacity:1;fill-rule:nonzero;stroke:none"
         d="M 610.375,710.801 V 837.238 H 240.789 c 0,0 0.094,-126.398 0,-126.398 -0.066,0 369.402,-0.039 369.586,-0.039" /><path
         id="path56"
         style="fill:#ffffff;fill-opacity:1;fill-rule:nonzero;stroke:none"
         d="M 3820.06,598.84 H 4182.3 V 472.398 H 3820.06 V 598.84" /><path
         id="path58"
         style="fill:#ffffff;fill-opacity:1;fill-rule:nonzero;stroke:none"
         d="m 2704.57,598.84 h 364.05 V 472.449 H 2704.57 V 598.84" /><path
         id="path60"
         style="fill:#ffffff;fill-opacity:1;fill-rule:nonzero;stroke:none"
         d="m 3618,471.801 c 0.09,0.597 44.68,127.179 45.37,127.039 h -438.7 c -0.79,0.09 44.95,-126.442 44.95,-126.442 0,0 348.28,-1.097 348.38,-0.597" /><path
         id="path62"
         style="fill:#ffffff;fill-opacity:1;fill-rule:nonzero;stroke:none"
         d="m 1222.52,472.449 c 0,-0.508 -0.04,126.391 0,126.442 h 375.1 c 0,0 0.32,-126.493 0,-126.493 -0.35,0 -375.1,0.192 -375.1,0.051" /><path
         id="path64"
         style="fill:#ffffff;fill-opacity:1;fill-rule:nonzero;stroke:none"
         d="m 2342.83,598.891 c 18.15,-38.09 19.98,-83.469 23.59,-127.039 H 1969 v 127.039 h 373.83" /><path
         id="path66"
         style="fill:#ffffff;fill-opacity:1;fill-rule:nonzero;stroke:none"
         d="M 240.789,598.891 H 610.375 V 472.488 H 240.789 v 126.403" /><path
         id="path68"
         style="fill:#ffffff;fill-opacity:1;fill-rule:nonzero;stroke:none"
         d="m 3820.06,365.422 h 605.98 V 238.941 h -605.98 v 126.481" /><path
         id="path70"
         style="fill:#ffffff;fill-opacity:1;fill-rule:nonzero;stroke:none"
         d="m 2462,365.422 h 606.62 V 238.941 H 2462 v 126.481" /><path
         id="path72"
         style="fill:#ffffff;fill-opacity:1;fill-rule:nonzero;stroke:none"
         d="m 3536.46,238.941 h -185.03 l -44.41,126.481 h 272.24 l -42.8,-126.481" /><path
         id="path74"
         style="fill:#ffffff;fill-opacity:1;fill-rule:nonzero;stroke:none"
         d="M 0.0664063,365.422 V 238.98 H 860.828 c 0.367,-0.179 -0.39,126.348 0,126.348 0.367,0 -861.749875,0.094 -860.7615937,0.094" /><path
         id="path76"
         style="fill:#ffffff;fill-opacity:1;fill-rule:nonzero;stroke:none"
         d="m 2350.66,365.422 c -9.06,-41.731 -17.36,-92.551 -47.84,-126.481 l -11.37,0.039 H 973.297 V 365.422 H 2350.66" /><path
         id="path78"
         style="fill:#ffffff;fill-opacity:1;fill-rule:nonzero;stroke:none"
         d="m 3452.59,0.308594 h -17.01 L 3392.32,127.031 H 3497 L 3452.59,0.308594" /><path
         id="path80"
         style="fill:#ffffff;fill-opacity:1;fill-rule:nonzero;stroke:none"
         d="m 3820.06,127.031 h 605.98 V 0.0390625 H 3820.06 V 127.031" /><path
         id="path82"
         style="fill:#ffffff;fill-opacity:1;fill-rule:nonzero;stroke:none"
         d="M 973.109,0.308594 V 126.852 c 0,0 1243.601,-0.153 1247.171,-0.153 C 2136.8,46.8398 2022.24,1.78906 1898.87,0.0390625 L 973.297,0.308594" /><path
         id="path84"
         style="fill:#ffffff;fill-opacity:1;fill-rule:nonzero;stroke:none"
         d="m 2462,127.031 h 606.62 V 0.0390625 H 2462 V 127.031" /><path
         id="path86"
         style="fill:#ffffff;fill-opacity:1;fill-rule:nonzero;stroke:none"
         d="m 860.828,126.48 c 0,0 -0.39,-126.171406 0,-126.171406 0.367,0 -860.531125,-0.5 -860.7615937,-0.2265627 C -0.167969,0.308594 0.296875,126.852 0.0664063,126.852 -0.167969,126.852 860.438,126.102 860.828,126.48" /></g></g></svg>