<?xml version="1.0" encoding="utf-8"?>
<!-- Generator: Adobe Illustrator 19.2.1, SVG Export Plug-In . SVG Version: 6.00 Build 0)  -->
<svg version="1.1" id="Layer_1" xmlns="http://www.w3.org/2000/svg" xmlns:xlink="http://www.w3.org/1999/xlink" x="0px" y="0px"
	 viewBox="0 0 35 35" style="enable-background:new 0 0 35 35;" xml:space="preserve">
<style type="text/css">
	.st0{fill:#DBDCDD;}
	.st1{fill:#FFFFFF;}
</style>
<g>
	<path class="st0" d="M27.1,17.9c-1.2-2.4-3.8-4-6.6-4c-3.6,0-6.7,2.6-7.4,6c-2.6,0.2-4.6,2.3-4.6,5c0,2.8,2.2,5,5,5h13
		c3.3,0,6-2.7,6-6C32.4,20.8,30.1,18.2,27.1,17.9z"/>
	<path class="st1" d="M11.5,18.2c1-2.7,3.1-4.7,5.7-5.7c0-0.1,0-0.2,0-0.3c0-3.1-1.9-5.8-4.6-7c0.4,1,0.7,2,0.7,3.2
		c0,4.2-3.4,7.6-7.6,7.6c-1.1,0-2.1-0.2-3.1-0.6c1.1,2.4,3.4,4.1,6.1,4.4C9.5,19,10.4,18.5,11.5,18.2z"/>
</g>
</svg>
