<?xml version="1.0" encoding="utf-8"?>
<!-- Generator: Adobe Illustrator 19.2.1, SVG Export Plug-In . SVG Version: 6.00 Build 0)  -->
<svg version="1.1" id="Layer_1" xmlns="http://www.w3.org/2000/svg" xmlns:xlink="http://www.w3.org/1999/xlink" x="0px" y="0px"
	 viewBox="0 0 35 35" style="enable-background:new 0 0 35 35;" xml:space="preserve">
<style type="text/css">
	.st0{fill:#808080;}
	.st1{fill:#DBDCDD;}
</style>
<g>
	<g>
		<rect x="14" y="22.4" transform="matrix(0.7071 -0.7071 0.7071 0.7071 -10.5728 21.2372)" class="st0" width="12.7" height="2"/>
	</g>
	<g>
		<rect x="7.2" y="23.6" transform="matrix(0.7071 -0.7071 0.7071 0.7071 -13.4388 16.8426)" class="st0" width="12.7" height="2"/>
	</g>
	<g>
		<rect x="6.5" y="18.9" transform="matrix(0.7071 -0.7071 0.7071 0.7071 -10.3051 14.9334)" class="st0" width="12.7" height="2"/>
	</g>
	<g>
		<path class="st1" d="M5.5,16.1c0,2.8,2.2,5,5,5h13c3.3,0,6-2.7,6-6c0-3.1-2.3-5.6-5.4-6c-1.2-2.4-3.8-4-6.6-4
			c-3.6,0-6.7,2.6-7.4,6C7.5,11.4,5.5,13.5,5.5,16.1z"/>
	</g>
</g>
</svg>
