<?xml version="1.0" encoding="utf-8"?>
<!-- Generator: Adobe Illustrator 19.2.1, SVG Export Plug-In . SVG Version: 6.00 Build 0)  -->
<svg version="1.1" id="Layer_1" xmlns="http://www.w3.org/2000/svg" xmlns:xlink="http://www.w3.org/1999/xlink" x="0px" y="0px"
	 viewBox="0 0 35 35" style="enable-background:new 0 0 35 35;" xml:space="preserve">
<style type="text/css">
	.st0{fill:#808080;}
	.st1{fill:#DBDCDD;}
</style>
<g>
	<g>
		<path class="st0" d="M22.4,25.9h-2v-2h2V25.9z M22.4,21.9h-2v-2h2V21.9z M22.4,17.9h-2v-2h2V17.9z M22.4,13.9h-2v-0.7h2V13.9z"/>
	</g>
	<g>
		<path class="st0" d="M18.5,31.1h-2v-2h2V31.1z M18.5,27.1h-2v-2h2V27.1z M18.5,23.1h-2v-2h2V23.1z M18.5,19.1h-2v-0.7h2V19.1z"/>
	</g>
	<g>
		<path class="st0" d="M14.6,29.3h-2v-2h2V29.3z M14.6,25.3h-2v-2h2V25.3z M14.6,21.3h-2v-2h2V21.3z M14.6,17.3h-2v-0.7h2V17.3z"/>
	</g>
	<g>
		<path class="st1" d="M5.5,14.9c0,2.8,2.2,5,5,5h13c3.3,0,6-2.7,6-6c0-3.1-2.3-5.6-5.4-6c-1.2-2.4-3.8-4-6.6-4
			c-3.6,0-6.7,2.6-7.4,6C7.5,10.1,5.5,12.2,5.5,14.9z"/>
	</g>
</g>
</svg>
