<?xml version="1.0" encoding="utf-8"?>
<!-- Generator: Adobe Illustrator 19.2.1, SVG Export Plug-In . SVG Version: 6.00 Build 0)  -->
<svg version="1.1" id="Layer_1" xmlns="http://www.w3.org/2000/svg" xmlns:xlink="http://www.w3.org/1999/xlink" x="0px" y="0px"
	 viewBox="0 0 35 35" style="enable-background:new 0 0 35 35;" xml:space="preserve">
<style type="text/css">
	.st0{fill:#FCE605;}
	.st1{fill:#DBDCDD;}
</style>
<g>
	<g>
		<polygon class="st0" points="21.8,21.6 18.7,21.6 21.8,15.4 14,15.4 14,24 16.4,24 16.4,31 		"/>
	</g>
	<g>
		<path class="st1" d="M24.2,8c-1.2-2.4-3.8-4-6.7-4c-3.6,0-6.7,2.6-7.3,6c-2.6,0.2-4.7,2.3-4.7,5c0,2.8,2.2,5,5,5H12v-4.6v-2h2h7.8
			h3.2l-1.4,2.9l-1.7,3.4h3.4l0,0.1c2.4-0.8,4.2-3,4.2-5.7C29.5,10.9,27.2,8.3,24.2,8z"/>
	</g>
</g>
</svg>
