<?xml version="1.0" encoding="utf-8"?>
<!-- Generator: Adobe Illustrator 19.2.1, SVG Export Plug-In . SVG Version: 6.00 Build 0)  -->
<svg version="1.1" id="Layer_1" xmlns="http://www.w3.org/2000/svg" xmlns:xlink="http://www.w3.org/1999/xlink" x="0px" y="0px"
	 viewBox="0 0 35 35" style="enable-background:new 0 0 35 35;" xml:space="preserve">
<style type="text/css">
	.st0{fill:#00708F;}
	.st1{fill:#FFFFFF;}
</style>
<g>
	<g>
		
			<rect x="14.6" y="23.3" transform="matrix(0.7071 -0.7071 0.7071 0.7071 -11.0198 21.9194)" class="st0" width="12.7" height="2"/>
	</g>
	<g>
		<rect x="7.8" y="24.5" transform="matrix(0.7071 -0.7071 0.7071 0.7071 -13.8857 17.5248)" class="st0" width="12.7" height="2"/>
	</g>
	<g>
		<rect x="7.1" y="19.8" transform="matrix(0.7071 -0.7071 0.7071 0.7071 -10.7521 15.6156)" class="st0" width="12.7" height="2"/>
	</g>
	<g>
		<path class="st1" d="M6.1,17c0,2.8,2.2,5,5,5h13c3.3,0,6-2.7,6-6c0-3.1-2.3-5.6-5.4-6c-1.2-2.4-3.8-4-6.6-4c-3.6,0-6.7,2.6-7.4,6
			C8.1,12.3,6.1,14.4,6.1,17z"/>
	</g>
</g>
</svg>
