<?xml version="1.0" encoding="utf-8"?>
<!-- Generator: Adobe Illustrator 19.2.1, SVG Export Plug-In . SVG Version: 6.00 Build 0)  -->
<svg version="1.1" id="Layer_1" xmlns="http://www.w3.org/2000/svg" xmlns:xlink="http://www.w3.org/1999/xlink" x="0px" y="0px"
	 viewBox="0 0 35 35" style="enable-background:new 0 0 35 35;" xml:space="preserve">
<style type="text/css">
	.st0{fill:#FFFFFF;}
</style>
<g>
	<path class="st0" d="M27.5,16.5h-4.2l3.2-3.2l-1.4-1.4l-4.7,4.7h-2v-2l4.7-4.7l-1.4-1.4l-3.2,3.2V7.5h-2v4.2l-3.2-3.2l-1.4,1.4
		l4.7,4.7v2h-2l-4.7-4.7l-1.4,1.4l3.2,3.2H7.5v2h4.2l-3.2,3.2l1.4,1.4l4.7-4.7h2v2l-4.7,4.7l1.4,1.4l3.2-3.2v4.2h2v-4.2l3.2,3.2
		l1.4-1.4l-4.7-4.7v-2h2l4.7,4.7l1.4-1.4l-3.2-3.2h4.2V16.5z"/>
</g>
</svg>
