<?xml version="1.0" encoding="utf-8"?>
<!-- Generator: Adobe Illustrator 19.2.1, SVG Export Plug-In . SVG Version: 6.00 Build 0)  -->
<svg version="1.1" id="Layer_1" xmlns="http://www.w3.org/2000/svg" xmlns:xlink="http://www.w3.org/1999/xlink" x="0px" y="0px"
	 viewBox="0 0 35 35" style="enable-background:new 0 0 35 35;" xml:space="preserve">
<style type="text/css">
	.st0{fill:#FFFFFF;}
</style>
<g>
	<g>
		<path class="st0" d="M20.9,14.6h-3.3l2.6-2.6L19,10.9l-3.7,3.7h-1.6V13l3.7-3.7l-1.1-1.1l-2.6,2.6V7.4H12v3.3L9.5,8.1L8.3,9.3
			L12,13v1.6h-1.6l-3.7-3.7L5.6,12l2.6,2.6H4.8v1.6h3.3l-2.6,2.6l1.1,1.1l3.7-3.7H12v1.6l-3.7,3.7l1.1,1.1l2.6-2.6v3.3h1.6v-3.3
			l2.6,2.6l1.1-1.1l-3.7-3.7v-1.6h1.6l3.7,3.7l1.1-1.1l-2.6-2.6h3.3V14.6z"/>
	</g>
	<g>
		<path class="st0" d="M29.5,26.4l-1.1-1.1h1.8l0-0.8h-2.5L27.1,24l0.5-0.5h2.5l0-0.8h-1.8l1.1-1.1L29,21l-1.1,1.1v-1.8l-0.8,0v2.5
			l-0.5,0.5L26,22.9v-2.5l-0.8,0v1.8L24.1,21l-0.5,0.5l1.1,1.1H23l0,0.8h2.5L26,24l-0.5,0.5H23l0,0.8h1.8l-1.1,1.1l0.5,0.5l1.1-1.1
			v1.8l0.8,0v-2.5l0.5-0.5l0.5,0.5v2.5l0.8,0v-1.8L29,27L29.5,26.4z"/>
	</g>
	<g>
		<circle class="st0" cx="25.7" cy="12.7" r="1.7"/>
	</g>
</g>
</svg>
