<?xml version="1.0" encoding="utf-8"?>
<!-- Generator: Adobe Illustrator 19.2.1, SVG Export Plug-In . SVG Version: 6.00 Build 0)  -->
<svg version="1.1" id="Layer_1" xmlns="http://www.w3.org/2000/svg" xmlns:xlink="http://www.w3.org/1999/xlink" x="0px" y="0px"
	 viewBox="0 0 35 35" style="enable-background:new 0 0 35 35;" xml:space="preserve">
<style type="text/css">
	.st0{fill:#FCE605;}
</style>
<g>
	<path class="st0" d="M12.5,11.5l-1.8-1.8l-1.4,1.4l1.8,1.8L12.5,11.5z M9.7,17.2h-3v2h3V17.2z M18.7,7.2h-2v2.9h2V7.2z M26.2,11.1
		l-1.4-1.4L23,11.5l1.4,1.4L26.2,11.1z M22.9,24.8l1.8,1.8l1.4-1.4l-1.8-1.8L22.9,24.8z M25.7,17.2v2h3v-2H25.7z M17.7,12.2
		c-3.3,0-6,2.7-6,6s2.7,6,6,6s6-2.7,6-6S21,12.2,17.7,12.2z M16.7,29.1h2v-3h-2V29.1z M9.2,25.2l1.4,1.4l1.8-1.8L11,23.4L9.2,25.2z"
		/>
</g>
</svg>
