<?xml version="1.0" encoding="UTF-8" standalone="no"?>
<svg
   xmlns:dc="http://purl.org/dc/elements/1.1/"
   xmlns:cc="http://creativecommons.org/ns#"
   xmlns:rdf="http://www.w3.org/1999/02/22-rdf-syntax-ns#"
   xmlns:svg="http://www.w3.org/2000/svg"
   xmlns="http://www.w3.org/2000/svg"
   viewBox="0 0 563.76001 314.76001"
   height="314.76001"
   width="563.76001"
   xml:space="preserve"
   id="svg2"
   version="1.1"><metadata
     id="metadata8"><rdf:RDF><cc:Work
         rdf:about=""><dc:format>image/svg+xml</dc:format><dc:type
           rdf:resource="http://purl.org/dc/dcmitype/StillImage" /></cc:Work></rdf:RDF></metadata><defs
     id="defs6" /><g
     transform="matrix(1.3333333,0,0,-1.3333333,0,314.76)"
     id="g10"><g
       transform="scale(0.1)"
       id="g12"><path
         id="path14"
         style="fill:#ffffff;fill-opacity:1;fill-rule:evenodd;stroke:none"
         d="m 635.309,1261.93 c -72.766,0 -72.024,-35.41 -72.024,-146.53 V 853.309 c 0,-123.848 -77.199,-216.61 -237.383,-216.61 -150.117,0 -240.3903,72.922 -243.1442,227.59 v 332.071 c 0,63.74 -34.3945,64.61 -82.7578,65.57 v 23.76 c 42.8086,-0.99 84.6094,-2.02 125.727,-2.02 41.75,0 83.664,1.03 129.222,2.02 v -23.76 c -48.265,-0.96 -82.812,-1.83 -82.812,-65.57 V 886.91 c 0,-108.18 35.402,-212.851 177.371,-212.851 151.18,0 165.625,116.523 165.625,179.25 v 259.451 c 0,149.17 -5.555,146.36 -86.465,149.17 v 23.76 c 38.262,-0.99 76.469,-2.02 114.719,-2.02 30.906,0 61.07,2.02 91.922,2.02 v -23.76" /><path
         id="path16"
         style="fill:#ffffff;fill-opacity:1;fill-rule:evenodd;stroke:none"
         d="m 633.398,800.422 h 20.957 c 15.504,-68.051 66.411,-134.512 142.028,-134.512 70.008,0 124.668,49 124.668,120.762 0,169.258 -269.391,119.527 -269.391,334.228 0,117.32 83.555,178.41 194.883,178.41 37.25,0 74.508,-8.44 110.859,-13.62 l 14.61,-116.58 H 951 c -9.789,63.68 -51.754,101.17 -117.422,101.17 -69.105,0 -109.109,-50.27 -109.109,-116.65 0,-169.329 280.401,-122.84 280.401,-332.181 0,-118.289 -106.628,-184.75 -213.936,-184.75 -47.414,0 -96.579,11.11 -139.274,31.012 l -18.262,132.711" /><path
         id="path18"
         style="fill:#ffffff;fill-opacity:1;fill-rule:evenodd;stroke:none"
         d="m 1578.95,665.91 c 133.03,0 216.58,114.61 216.58,279.231 0,138.349 -80.06,325.139 -235.53,325.139 -133.02,0 -216.84,-114.77 -216.84,-279.6 0,-138.348 80.27,-324.77 235.79,-324.77 z m -8.26,633.4 c 182.14,0 324.91,-154.83 324.91,-327.701 0,-166.347 -128.32,-334.91 -327.55,-334.91 -182.14,0 -325.01,154.723 -325.01,327.711 0,166.44 128.42,334.9 327.65,334.9" /><path
         id="path20"
         style="fill:#ffffff;fill-opacity:1;fill-rule:evenodd;stroke:none"
         d="m 1901.89,1285.69 c 40.97,-2.02 81.92,-2.02 122.82,-2.02 30.8,0 62.87,2.02 100.91,2.02 93.77,0 228.55,-39.19 228.55,-181.29 0,-107.189 -100.13,-181.83 -195.68,-181.83 -18.27,0 -32.87,0.7 -46.25,0.7 v 30.152 c 11.64,-1.953 22.54,-1.953 34.5,-1.953 78.15,0 112.87,77.411 112.87,142.981 0,126.52 -88.54,162.08 -148.38,162.08 -13.76,0 -30.11,-0.98 -39.95,-2.75 V 739.52 c 0,-63.622 34.24,-64.719 83.55,-65.461 v -23.7 c -44.56,0 -83.55,1.692 -123.71,1.692 -43.61,0 -86.42,-0.641 -131.87,-1.692 v 23.7 c 48.04,0.742 82.65,1.839 82.65,65.461 v 433.16 c 0,70.14 -11.7,89.25 -80.01,89.25 v 23.76" /><path
         id="path22"
         style="fill:#ffffff;fill-opacity:1;fill-rule:evenodd;stroke:none"
         d="m 2531.59,998.031 h 120.18 c 73.7,0 73.7,57.399 76.45,78.169 h 18.11 c -1.81,-19.95 -3.61,-69.17 -3.61,-101.848 0,-29.211 4.6,-71.93 3.61,-101.09 h -18.11 c 0,87.597 -29.1,87.597 -99.31,87.597 h -97.32 V 806.031 c 0,-101.179 3.6,-126.371 93.66,-126.371 h 56.52 c 89.26,4.238 129.11,16.102 164.67,113.77 l 21.91,-3.801 c -14.61,-45.297 -28.26,-91.981 -37.47,-139.27 -90.96,0 -181.87,1.692 -272.88,1.692 -67.32,0 -134.57,0 -202.09,-1.692 v 23.7 c 79.32,0 86.41,14.601 86.41,102.761 v 404.17 c 0,74.56 -14.5,78.13 -86.41,80.94 v 23.76 c 61.17,-2.02 122.87,-2.02 183.72,-2.02 87.42,0 174.04,0 262.09,2.02 v -135.76 l -17.88,-4.55 c -13.87,85.56 -54.66,111.15 -145.89,111.15 H 2531.59 V 998.031" /><path
         id="path24"
         style="fill:#ffffff;fill-opacity:1;fill-rule:evenodd;stroke:none"
         d="m 3523.54,642.102 h -21 L 3026.67,1164.56 V 825.238 c 0,-125.578 9.74,-151.179 108.37,-151.179 v -23.7 c -40.16,0 -81.22,1.692 -121.23,1.692 -40.05,0 -80.96,-0.641 -120.96,-1.692 v 23.7 c 55.56,0 97.36,0 97.36,115.57 v 365.881 c 0,78.13 -33.65,106.42 -112.08,106.42 v 23.76 c 28.27,-0.99 55.67,-2.02 83.67,-2.02 24.76,0 50.37,2.02 74.61,2.02 37.52,-55.54 122.18,-138.43 225.94,-253.08 77.32,-85.43 162.73,-175.911 224.69,-242.981 v 361.991 c 0,83.9 -19.22,109.35 -110.02,110.31 v 23.76 c 41.65,-0.99 84.67,-2.02 126.31,-2.02 35.57,0 70.22,2.02 105.73,2.02 v -23.76 c -55.61,0 -85.52,-4.37 -85.52,-93.8 V 642.102" /><path
         id="path26"
         style="fill:#ffffff;fill-opacity:1;fill-rule:evenodd;stroke:none"
         d="M 3025.82,1687.42 C 3594.4,1547.3 3889.46,1240.31 3883.11,940.809 3872.9,443.449 3037.52,52.4102 2017.41,67.4414 1591.86,73.6797 1201.29,149.66 891.523,272.109 1240.5,109.98 1700.71,7.80078 2207.11,0.441406 3311.68,-15.8594 4216.47,424.512 4228.12,984.09 c 8.1,392.03 -424.07,738.33 -1063.44,916.34 -20.65,-82.73 -72.82,-155.83 -138.86,-213.01" /><path
         id="path28"
         style="fill:#ffffff;fill-opacity:1;fill-rule:nonzero;stroke:none"
         d="m 3157.96,2315.21 v -95.96 h 16.61 v 38.1 h 13.28 c 8.78,0 15.29,-1.11 18.79,-3.26 5.93,-3.41 9.04,-10.74 9.04,-22.12 v -7.62 l 0.33,-3.14 c 0,-0.3 0,-0.72 0,-0.91 0.21,-0.21 0.42,-0.62 0.42,-1.05 h 15.92 l -0.52,1.24 c -0.53,0.72 -0.8,2.51 -0.8,5.08 -0.27,2.6 -0.37,4.93 -0.37,7.06 v 7.15 c 0,4.81 -1.7,9.79 -5.24,14.97 -3.5,4.82 -8.84,8.1 -16.35,9.45 5.98,0.69 10.53,2.38 13.92,4.58 6.35,3.86 9.36,10.21 9.36,18.86 0,11.91 -4.86,20.03 -14.98,24.16 -5.5,2.25 -14.23,3.41 -25.92,3.41 z m 58.05,-29.13 c 0,-7.43 -3.44,-12.3 -10.28,-14.97 -3.38,-1.46 -8.88,-1.88 -15.92,-1.88 h -15.24 v 34.36 h 14.35 c 9.41,0 16.24,-1.23 20.57,-3.59 4.24,-2.38 6.52,-6.78 6.52,-13.92 m 64.28,-18.84 c 0,23.89 -8.73,44.56 -25.71,61.41 -17.04,16.96 -37.78,25.35 -61.86,25.35 -23.87,0 -44.4,-8.39 -61.49,-25.35 -16.83,-17.15 -25.29,-37.54 -25.29,-61.41 0,-24.18 8.25,-45.11 25.24,-61.99 17.04,-17.12 37.46,-25.45 61.54,-25.45 24.08,0 44.82,8.33 61.86,25.45 16.98,17.25 25.71,37.81 25.71,61.99 m -87.78,75.06 c 21.01,0 38.52,-7.41 53.5,-22.07 14.76,-14.84 21.79,-32.38 21.79,-53.23 0,-20.87 -7.03,-38.75 -21.79,-53.57 -14.71,-14.82 -32.49,-22.09 -53.5,-22.09 -20.75,0 -38.48,7.27 -52.97,22.09 -14.66,14.82 -21.81,32.7 -21.81,53.57 0,20.85 7.15,38.39 21.81,53.23 14.71,14.66 32.38,22.07 52.97,22.07" /><path
         id="path30"
         style="fill:#ffffff;fill-opacity:1;fill-rule:nonzero;stroke:none"
         d="m 2899.62,1823.14 c -76.04,-73.6 -128.9,-148.1 -151.65,-232.08 91.85,27.39 179.22,75.57 248.9,142.95 73.03,70.51 117.1,153.91 126.58,235.85 -84.45,-36.25 -161.28,-86.36 -223.83,-146.72" /><path
         id="path32"
         style="fill:#ffffff;fill-opacity:1;fill-rule:nonzero;stroke:none"
         d="m 2483.76,2102.79 c 57.99,55.87 102.02,118.92 129.43,184.22 -107.58,-23.85 -211.88,-76.33 -292.58,-154.22 -62.33,-60.17 -103.66,-129.67 -120.38,-199.74 110.86,35.38 202.83,91.73 283.53,169.74" /><path
         id="path34"
         style="fill:#ffffff;fill-opacity:1;fill-rule:nonzero;stroke:none"
         d="m 2857.55,1870.43 c 73.55,71.2 165.15,128.87 265.26,168.51 -10.84,81.04 -58.68,151.47 -135.29,199.31 -85.41,52.88 -193.9,71.78 -303.74,60.24 -28.53,-86.94 -82.98,-170.92 -157.9,-243.2 -91.12,-88.05 -206.11,-154.17 -333.74,-192.37 0.11,-9.4 0.42,-18.71 1.33,-27.97 9.04,-84.06 57.56,-157.27 136.4,-206.43 98.9,-61.43 228.66,-77.09 356.13,-52.65 21.85,105.67 80.86,206.96 171.55,294.56" /><path
         id="path36"
         style="fill:#ffffff;fill-opacity:1;fill-rule:nonzero;stroke:none"
         d="m 2298.82,1573.23 c -96.2,59.93 -155.31,150.59 -166.63,255.22 0,0.18 0,0.57 0,0.94 0,0 -12.54,21.54 -150.29,24.08 -137.58,2.41 -200.45,-76.38 -200.45,-76.38 0,0 27,60.82 -62.43,130.57 -70.28,54.63 -277.28,22.67 -277.28,22.67 0,0 50.06,52.01 180.02,80.88 130.11,28.95 186.11,-33.44 327.18,-11.78 102.23,15.77 196.36,50.91 240.44,68.82 23.45,39.5 53.19,77.26 89.01,112 49.31,47.57 106.79,86.49 168.53,115.99 -51.48,-1.72 -125.04,0 -170.48,20.11 -75.36,33.44 -190.61,50.4 -261.36,42.39 -70.96,-7.81 -195.31,-69.59 -195.31,-69.59 0,0 125.09,2.09 115.94,-76.49 -9,-78.66 -128.32,-80.03 -209.6,-47.33 -81.28,32.54 -163.24,69.82 -252.46,67.3 -134.62,-4.15 -218.86,-72.36 -218.86,-72.36 0,0 152.45,27.86 150.86,-66.77 -1.74,-102.26 -137.84,-122.96 -199.86,-82.05 -82.34,54.13 -156.52,76.22 -268.177,47.68 -112.023,-28.55 -184.097,-116.23 -319.82,-131.26 -135.676,-15.24 -194.73,31.88 -194.73,31.88 0,0 109.054,-150.62 316.804,-139.48 207.692,11.42 245.156,65 294.263,52.51 49.05,-12.27 68.85,-63.97 37.36,-103.37 -31.44,-39.32 -121.865,-31.51 -121.865,-31.51 0,0 111.545,-88.97 270.135,-65.29 158.59,23.7 212.35,77.52 306.65,87.99 94.45,10.53 150.65,-80.4 73.55,-146.86 -58.69,-50.59 -163.2,-12.49 -163.2,-12.49 0,0 45.99,-127.56 210.4,-103.21 164.67,24.37 256.06,115.7 384.8,122.15 87.79,4.34 200.66,-25.74 271.72,-49.79 -1.53,0.92 -3.22,1.85 -4.86,2.83" /></g></g></svg>