<?xml version="1.0" encoding="utf-8"?>
<!-- Generator: Adobe Illustrator 19.2.1, SVG Export Plug-In . SVG Version: 6.00 Build 0)  -->
<svg version="1.1" id="Layer_1" xmlns="http://www.w3.org/2000/svg" xmlns:xlink="http://www.w3.org/1999/xlink" x="0px" y="0px"
	 viewBox="0 0 35 35" style="enable-background:new 0 0 35 35;" xml:space="preserve">
<style type="text/css">
	.st0{fill:#FFFFFF;}
</style>
<g>
	<g>
		<path class="st0" d="M23,17.8H5.8v-1.8H23c2.5,0,4.4-2,4.4-4.4s-2-4.4-4.4-4.4s-4.4,2-4.4,4.4h-1.8c0-3.4,2.8-6.2,6.2-6.2
			s6.2,2.8,6.2,6.2S26.5,17.8,23,17.8z"/>
	</g>
	<g>
		<path class="st0" d="M12.4,14.5H5.8v-1.8h6.6c1,0,1.8-0.8,1.8-1.8s-0.8-1.8-1.8-1.8s-1.8,0.8-1.8,1.8H8.9c0-2,1.6-3.5,3.5-3.5
			s3.5,1.6,3.5,3.5S14.4,14.5,12.4,14.5z"/>
	</g>
	<g>
		<path class="st0" d="M18.3,29.6c-2.8,0-5-2.2-5-5h1.8c0,1.8,1.5,3.3,3.3,3.3c1.8,0,3.3-1.5,3.3-3.3s-1.5-3.3-3.3-3.3H5.8v-1.8
			h12.6c2.8,0,5,2.2,5,5S21.1,29.6,18.3,29.6z"/>
	</g>
</g>
</svg>
